<mxfile host="app.diagrams.net" modified="2020-11-26T11:30:56.861Z" agent="5.0 (Windows NT 10.0; Win64; x64) AppleWebKit/537.36 (KHTML, like Gecko) Chrome/87.0.4280.66 Safari/537.36" etag="YuAiY2cjGcvDFPcCNY6i" version="13.10.3" type="github">
  <diagram name="Page-1" id="97916047-d0de-89f5-080d-49f4d83e522f">
    <mxGraphModel dx="942" dy="582" grid="1" gridSize="10" guides="1" tooltips="1" connect="1" arrows="1" fold="1" page="1" pageScale="1.5" pageWidth="1169" pageHeight="827" background="#ffffff" math="0" shadow="0">
      <root>
        <mxCell id="0" />
        <mxCell id="1" parent="0" />
        <mxCell id="27" value="Office of&#xa; Regulatory Support" style="rounded=1;fillColor=#10739E;strokeColor=none;shadow=1;gradientColor=none;fontStyle=1;fontColor=#FFFFFF;fontSize=14;" parent="1" vertex="1">
          <mxGeometry x="1092" y="975.5" width="200" height="60" as="geometry" />
        </mxCell>
        <UserObject label="Login" lucidchartObjectId="uJJdPkIltR~c" id="Rj89uZsyNbYNd_ZyUSPm-82">
          <mxCell style="html=1;overflow=block;whiteSpace=wrap;shape=mxgraph.sitemap.login;strokeColor=#6c8ebf;fillColor=#dae8fc;whiteSpace=wrap;fontSize=11;fontFamily=Helvetica;align=center;spacing=3;strokeOpacity=0;fillOpacity=100;rounded=1;absoluteArcSize=1;arcSize=6;" vertex="1" zOrder="95" parent="1">
            <mxGeometry x="490" y="121" width="96" height="72" as="geometry" />
          </mxCell>
        </UserObject>
        <mxCell id="Rj89uZsyNbYNd_ZyUSPm-83" value="Home" style="html=1;overflow=block;whiteSpace=wrap;rounded=1;arcSize=3;fillColor=#4397ff;strokeOpacity=0;fillOpacity=100;whiteSpace=wrap;fontSize=11;fontFamily=Helvetica;fontColor=#ffffff;align=center;spacing=3;whiteSpace=wrap;" vertex="1" zOrder="116" parent="1">
          <mxGeometry x="490" y="262" width="96" height="72" as="geometry" />
        </mxCell>
        <UserObject label="" lucidchartObjectId="hoIR0NyIq~wh" id="Rj89uZsyNbYNd_ZyUSPm-84">
          <mxCell style="html=1;jettySize=18;whiteSpace=wrap;fontSize=11;strokeColor=#333333;strokeOpacity=100;rounded=1;arcSize=24;edgeStyle=orthogonalEdgeStyle;startArrow=none;;endArrow=none;;exitX=0.5;exitY=1;exitPerimeter=0;entryX=0.5;entryY=0;entryPerimeter=0;" edge="1" parent="1" source="Rj89uZsyNbYNd_ZyUSPm-82" target="Rj89uZsyNbYNd_ZyUSPm-83">
            <mxGeometry width="100" height="100" relative="1" as="geometry">
              <Array as="points">
                <mxPoint x="538" y="193" />
                <mxPoint x="538" y="217" />
              </Array>
            </mxGeometry>
          </mxCell>
        </UserObject>
        <mxCell id="Rj89uZsyNbYNd_ZyUSPm-85" value="Colaborador" style="html=1;overflow=block;whiteSpace=wrap;rounded=1;arcSize=3;fillColor=#4397ff;strokeOpacity=0;fillOpacity=100;whiteSpace=wrap;fontSize=11;fontFamily=Helvetica;fontColor=#ffffff;align=center;spacing=3;whiteSpace=wrap;" vertex="1" zOrder="118" parent="1">
          <mxGeometry x="186" y="440" width="96" height="72" as="geometry" />
        </mxCell>
        <mxCell id="Rj89uZsyNbYNd_ZyUSPm-86" value="Perfil" style="html=1;overflow=block;whiteSpace=wrap;rounded=1;arcSize=3;fillColor=#4397ff;strokeOpacity=0;fillOpacity=100;whiteSpace=wrap;fontSize=11;fontFamily=Helvetica;fontColor=#ffffff;align=center;spacing=3;whiteSpace=wrap;" vertex="1" zOrder="119" parent="1">
          <mxGeometry x="186" y="584" width="96" height="72" as="geometry" />
        </mxCell>
        <mxCell id="Rj89uZsyNbYNd_ZyUSPm-87" value="EndereÃ§o" style="html=1;overflow=block;whiteSpace=wrap;rounded=1;arcSize=3;fillColor=#4397ff;strokeOpacity=0;fillOpacity=100;whiteSpace=wrap;fontSize=11;fontFamily=Helvetica;fontColor=#ffffff;align=center;spacing=3;whiteSpace=wrap;" vertex="1" zOrder="120" parent="1">
          <mxGeometry x="340" y="584" width="96" height="72" as="geometry" />
        </mxCell>
        <mxCell id="Rj89uZsyNbYNd_ZyUSPm-88" value="Fornecedor" style="html=1;overflow=block;whiteSpace=wrap;rounded=1;arcSize=3;fillColor=#4397ff;strokeOpacity=0;fillOpacity=100;whiteSpace=wrap;fontSize=11;fontFamily=Helvetica;fontColor=#ffffff;align=center;spacing=3;whiteSpace=wrap;" vertex="1" zOrder="121" parent="1">
          <mxGeometry x="340" y="440" width="96" height="72" as="geometry" />
        </mxCell>
        <mxCell id="Rj89uZsyNbYNd_ZyUSPm-89" value="Estoque" style="html=1;overflow=block;whiteSpace=wrap;rounded=1;arcSize=3;fillColor=#4397ff;strokeOpacity=0;fillOpacity=100;whiteSpace=wrap;fontSize=11;fontFamily=Helvetica;fontColor=#ffffff;align=center;spacing=3;whiteSpace=wrap;" vertex="1" zOrder="122" parent="1">
          <mxGeometry x="630" y="440" width="96" height="72" as="geometry" />
        </mxCell>
        <mxCell id="Rj89uZsyNbYNd_ZyUSPm-90" value="Grupo" style="html=1;overflow=block;whiteSpace=wrap;rounded=1;arcSize=3;fillColor=#4397ff;strokeOpacity=0;fillOpacity=100;whiteSpace=wrap;fontSize=11;fontFamily=Helvetica;fontColor=#ffffff;align=center;spacing=3;whiteSpace=wrap;" vertex="1" zOrder="123" parent="1">
          <mxGeometry x="490" y="584" width="96" height="72" as="geometry" />
        </mxCell>
        <mxCell id="Rj89uZsyNbYNd_ZyUSPm-91" value="Produtos" style="html=1;overflow=block;whiteSpace=wrap;rounded=1;arcSize=3;fillColor=#4397ff;strokeOpacity=0;fillOpacity=100;whiteSpace=wrap;fontSize=11;fontFamily=Helvetica;fontColor=#ffffff;align=center;spacing=3;whiteSpace=wrap;" vertex="1" zOrder="124" parent="1">
          <mxGeometry x="490" y="440" width="96" height="72" as="geometry" />
        </mxCell>
        <mxCell id="Rj89uZsyNbYNd_ZyUSPm-92" value="Historico" style="html=1;overflow=block;whiteSpace=wrap;rounded=1;arcSize=3;fillColor=#4397ff;strokeOpacity=0;fillOpacity=100;whiteSpace=wrap;fontSize=11;fontFamily=Helvetica;fontColor=#ffffff;align=center;spacing=3;whiteSpace=wrap;" vertex="1" zOrder="125" parent="1">
          <mxGeometry x="860" y="440" width="96" height="72" as="geometry" />
        </mxCell>
        <UserObject label="" lucidchartObjectId="QuIRwPCLp5o3" id="Rj89uZsyNbYNd_ZyUSPm-93">
          <mxCell style="html=1;jettySize=18;whiteSpace=wrap;fontSize=11;strokeColor=#333333;strokeOpacity=100;rounded=1;arcSize=24;edgeStyle=orthogonalEdgeStyle;startArrow=none;;endArrow=none;;exitX=0.5;exitY=1;entryX=0.5;entryY=0;entryDx=0;entryDy=0;exitDx=0;exitDy=0;" edge="1" parent="1" source="Rj89uZsyNbYNd_ZyUSPm-83" target="Rj89uZsyNbYNd_ZyUSPm-85">
            <mxGeometry width="100" height="100" relative="1" as="geometry">
              <Array as="points" />
            </mxGeometry>
          </mxCell>
        </UserObject>
        <mxCell id="Rj89uZsyNbYNd_ZyUSPm-104" value="" style="endArrow=none;html=1;exitX=0.5;exitY=1;exitDx=0;exitDy=0;entryX=0.5;entryY=0;entryDx=0;entryDy=0;" edge="1" parent="1" source="Rj89uZsyNbYNd_ZyUSPm-85" target="Rj89uZsyNbYNd_ZyUSPm-86">
          <mxGeometry width="50" height="50" relative="1" as="geometry">
            <mxPoint x="280" y="310" as="sourcePoint" />
            <mxPoint x="330" y="260" as="targetPoint" />
          </mxGeometry>
        </mxCell>
        <UserObject label="" lucidchartObjectId="QuIRwPCLp5o3" id="Rj89uZsyNbYNd_ZyUSPm-107">
          <mxCell style="html=1;jettySize=18;whiteSpace=wrap;fontSize=11;strokeColor=#333333;strokeOpacity=100;rounded=1;arcSize=24;edgeStyle=orthogonalEdgeStyle;startArrow=none;;endArrow=none;;exitX=0.5;exitY=1;exitDx=0;exitDy=0;" edge="1" parent="1" source="Rj89uZsyNbYNd_ZyUSPm-83" target="Rj89uZsyNbYNd_ZyUSPm-88">
            <mxGeometry width="100" height="100" relative="1" as="geometry">
              <Array as="points" />
              <mxPoint x="512" y="344" as="sourcePoint" />
              <mxPoint x="258" y="450" as="targetPoint" />
            </mxGeometry>
          </mxCell>
        </UserObject>
        <UserObject label="" lucidchartObjectId="QuIRwPCLp5o3" id="Rj89uZsyNbYNd_ZyUSPm-110">
          <mxCell style="html=1;jettySize=18;whiteSpace=wrap;fontSize=11;strokeColor=#333333;strokeOpacity=100;rounded=1;arcSize=24;edgeStyle=orthogonalEdgeStyle;startArrow=none;;endArrow=none;;exitX=0.5;exitY=0;exitDx=0;exitDy=0;entryX=0.5;entryY=1;entryDx=0;entryDy=0;" edge="1" parent="1" source="Rj89uZsyNbYNd_ZyUSPm-87" target="Rj89uZsyNbYNd_ZyUSPm-88">
            <mxGeometry width="100" height="100" relative="1" as="geometry">
              <Array as="points" />
              <mxPoint x="558" y="354" as="sourcePoint" />
              <mxPoint x="388" y="460" as="targetPoint" />
            </mxGeometry>
          </mxCell>
        </UserObject>
        <UserObject label="" lucidchartObjectId="QuIRwPCLp5o3" id="Rj89uZsyNbYNd_ZyUSPm-111">
          <mxCell style="html=1;jettySize=18;whiteSpace=wrap;fontSize=11;strokeColor=#333333;strokeOpacity=100;rounded=1;arcSize=24;edgeStyle=orthogonalEdgeStyle;startArrow=none;;endArrow=none;;entryX=0.5;entryY=1;entryDx=0;entryDy=0;exitX=0.5;exitY=0;exitDx=0;exitDy=0;" edge="1" parent="1" source="Rj89uZsyNbYNd_ZyUSPm-90" target="Rj89uZsyNbYNd_ZyUSPm-91">
            <mxGeometry width="100" height="100" relative="1" as="geometry">
              <Array as="points" />
              <mxPoint x="528" y="580" as="sourcePoint" />
              <mxPoint x="378" y="522" as="targetPoint" />
            </mxGeometry>
          </mxCell>
        </UserObject>
        <mxCell id="Rj89uZsyNbYNd_ZyUSPm-112" value="Estoque" style="html=1;overflow=block;whiteSpace=wrap;rounded=1;arcSize=3;fillColor=#4397ff;strokeOpacity=0;fillOpacity=100;whiteSpace=wrap;fontSize=11;fontFamily=Helvetica;fontColor=#ffffff;align=center;spacing=3;whiteSpace=wrap;" vertex="1" zOrder="122" parent="1">
          <mxGeometry x="630" y="580" width="96" height="72" as="geometry" />
        </mxCell>
        <UserObject label="" lucidchartObjectId="QuIRwPCLp5o3" id="Rj89uZsyNbYNd_ZyUSPm-113">
          <mxCell style="html=1;jettySize=18;whiteSpace=wrap;fontSize=11;strokeColor=#333333;strokeOpacity=100;rounded=1;arcSize=24;edgeStyle=orthogonalEdgeStyle;startArrow=none;;endArrow=none;;entryX=0.5;entryY=1;entryDx=0;entryDy=0;exitX=0.5;exitY=0;exitDx=0;exitDy=0;" edge="1" parent="1" source="Rj89uZsyNbYNd_ZyUSPm-112" target="Rj89uZsyNbYNd_ZyUSPm-89">
            <mxGeometry width="100" height="100" relative="1" as="geometry">
              <Array as="points" />
              <mxPoint x="538" y="590" as="sourcePoint" />
              <mxPoint x="538" y="522" as="targetPoint" />
            </mxGeometry>
          </mxCell>
        </UserObject>
        <mxCell id="Rj89uZsyNbYNd_ZyUSPm-114" value="Entrada" style="html=1;overflow=block;whiteSpace=wrap;rounded=1;arcSize=3;fillColor=#4397ff;strokeOpacity=0;fillOpacity=100;whiteSpace=wrap;fontSize=11;fontFamily=Helvetica;fontColor=#ffffff;align=center;spacing=3;whiteSpace=wrap;" vertex="1" zOrder="125" parent="1">
          <mxGeometry x="780.75" y="580" width="96" height="72" as="geometry" />
        </mxCell>
        <mxCell id="Rj89uZsyNbYNd_ZyUSPm-115" value="Saida" style="html=1;overflow=block;whiteSpace=wrap;rounded=1;arcSize=3;fillColor=#4397ff;strokeOpacity=0;fillOpacity=100;whiteSpace=wrap;fontSize=11;fontFamily=Helvetica;fontColor=#ffffff;align=center;spacing=3;whiteSpace=wrap;" vertex="1" zOrder="125" parent="1">
          <mxGeometry x="940" y="584" width="96" height="72" as="geometry" />
        </mxCell>
        <UserObject label="" lucidchartObjectId="QuIRwPCLp5o3" id="Rj89uZsyNbYNd_ZyUSPm-116">
          <mxCell style="html=1;jettySize=18;whiteSpace=wrap;fontSize=11;strokeColor=#333333;strokeOpacity=100;rounded=1;arcSize=24;edgeStyle=orthogonalEdgeStyle;startArrow=none;;endArrow=none;;entryX=0.5;entryY=1;entryDx=0;entryDy=0;exitX=0.419;exitY=-0.014;exitDx=0;exitDy=0;exitPerimeter=0;" edge="1" parent="1" source="Rj89uZsyNbYNd_ZyUSPm-114" target="Rj89uZsyNbYNd_ZyUSPm-92">
            <mxGeometry width="100" height="100" relative="1" as="geometry">
              <Array as="points" />
              <mxPoint x="688" y="590" as="sourcePoint" />
              <mxPoint x="688" y="522" as="targetPoint" />
            </mxGeometry>
          </mxCell>
        </UserObject>
        <UserObject label="" lucidchartObjectId="QuIRwPCLp5o3" id="Rj89uZsyNbYNd_ZyUSPm-117">
          <mxCell style="html=1;jettySize=18;whiteSpace=wrap;fontSize=11;strokeColor=#333333;strokeOpacity=100;rounded=1;arcSize=24;edgeStyle=orthogonalEdgeStyle;startArrow=none;;endArrow=none;;entryX=0.5;entryY=1;entryDx=0;entryDy=0;exitX=0.5;exitY=0;exitDx=0;exitDy=0;" edge="1" parent="1" source="Rj89uZsyNbYNd_ZyUSPm-115" target="Rj89uZsyNbYNd_ZyUSPm-92">
            <mxGeometry width="100" height="100" relative="1" as="geometry">
              <Array as="points" />
              <mxPoint x="830.9739999999999" y="588.992" as="sourcePoint" />
              <mxPoint x="918" y="522" as="targetPoint" />
            </mxGeometry>
          </mxCell>
        </UserObject>
        <UserObject label="" lucidchartObjectId="QuIRwPCLp5o3" id="Rj89uZsyNbYNd_ZyUSPm-118">
          <mxCell style="html=1;jettySize=18;whiteSpace=wrap;fontSize=11;strokeColor=#333333;strokeOpacity=100;rounded=1;arcSize=24;edgeStyle=orthogonalEdgeStyle;startArrow=none;;endArrow=none;;exitX=0.5;exitY=1;exitDx=0;exitDy=0;" edge="1" parent="1" source="Rj89uZsyNbYNd_ZyUSPm-83" target="Rj89uZsyNbYNd_ZyUSPm-91">
            <mxGeometry width="100" height="100" relative="1" as="geometry">
              <Array as="points" />
              <mxPoint x="548" y="344" as="sourcePoint" />
              <mxPoint x="378" y="450" as="targetPoint" />
            </mxGeometry>
          </mxCell>
        </UserObject>
        <UserObject label="" lucidchartObjectId="QuIRwPCLp5o3" id="Rj89uZsyNbYNd_ZyUSPm-119">
          <mxCell style="html=1;jettySize=18;whiteSpace=wrap;fontSize=11;strokeColor=#333333;strokeOpacity=100;rounded=1;arcSize=24;edgeStyle=orthogonalEdgeStyle;startArrow=none;;endArrow=none;;exitX=0.5;exitY=1;exitDx=0;exitDy=0;entryX=0.5;entryY=0;entryDx=0;entryDy=0;" edge="1" parent="1" source="Rj89uZsyNbYNd_ZyUSPm-83" target="Rj89uZsyNbYNd_ZyUSPm-89">
            <mxGeometry width="100" height="100" relative="1" as="geometry">
              <Array as="points" />
              <mxPoint x="548" y="344" as="sourcePoint" />
              <mxPoint x="538" y="450" as="targetPoint" />
            </mxGeometry>
          </mxCell>
        </UserObject>
        <UserObject label="" lucidchartObjectId="QuIRwPCLp5o3" id="Rj89uZsyNbYNd_ZyUSPm-120">
          <mxCell style="html=1;jettySize=18;whiteSpace=wrap;fontSize=11;strokeColor=#333333;strokeOpacity=100;rounded=1;arcSize=24;edgeStyle=orthogonalEdgeStyle;startArrow=none;;endArrow=none;;exitX=0.5;exitY=1;exitDx=0;exitDy=0;entryX=0.5;entryY=0;entryDx=0;entryDy=0;" edge="1" parent="1" source="Rj89uZsyNbYNd_ZyUSPm-83" target="Rj89uZsyNbYNd_ZyUSPm-92">
            <mxGeometry width="100" height="100" relative="1" as="geometry">
              <Array as="points" />
              <mxPoint x="548" y="344" as="sourcePoint" />
              <mxPoint x="688" y="450" as="targetPoint" />
            </mxGeometry>
          </mxCell>
        </UserObject>
      </root>
    </mxGraphModel>
  </diagram>
</mxfile>
